<?xml version="1.0" standalone="no"?>
<!DOCTYPE svg PUBLIC "-//W3C//DTD SVG 20010904//EN"
 "http://www.w3.org/TR/2001/REC-SVG-20010904/DTD/svg10.dtd">
<svg version="1.0" xmlns="http://www.w3.org/2000/svg"
 width="1350.000000pt" height="1080.000000pt" viewBox="0 0 1350.000000 1080.000000"
 preserveAspectRatio="xMidYMid meet">

<g transform="translate(0.000000,1080.000000) scale(0.100000,-0.100000)"
fill="#000000" stroke="none">
<path d="M3955 7551 c-72 -33 -70 -20 -73 -467 l-3 -401 -122 -12 c-286 -28
-525 -107 -764 -252 -145 -89 -336 -258 -429 -379 l-38 -50 -403 0 -403 0 0
-1030 0 -1030 404 0 c237 0 406 -4 408 -9 9 -26 153 -182 228 -248 683 -599
1709 -570 2349 66 320 319 492 711 508 1161 17 492 -162 941 -514 1286 l-83
81 33 54 c54 92 38 89 514 89 l411 0 31 26 c17 14 35 42 41 62 8 25 10 193 8
512 -3 439 -4 477 -21 502 -41 60 -4 58 -1070 58 -925 0 -974 -1 -1012 -19z
m478 -413 c26 -18 30 -18 46 -4 69 62 183 23 198 -67 4 -27 -1 -47 -22 -86
-29 -52 -173 -201 -195 -201 -7 0 -50 38 -96 84 -123 122 -152 207 -91 264 48
45 106 49 160 10z m605 10 c8 -8 12 -62 12 -179 0 -176 -5 -195 -47 -187 -16
3 -19 19 -23 143 l-5 140 -30 0 c-25 0 -30 4 -30 25 0 18 10 30 40 47 45 26
66 28 83 11z m299 -31 c29 -32 33 -44 33 -89 0 -52 -1 -53 -70 -120 l-70 -67
68 -3 c64 -3 67 -4 67 -28 l0 -25 -125 0 c-119 0 -125 1 -128 21 -2 15 20 41
85 99 48 43 92 88 97 100 14 35 0 71 -34 85 -26 11 -34 10 -65 -9 -42 -24 -58
-26 -74 -7 -8 10 -6 20 10 40 29 37 54 46 118 42 48 -3 58 -7 88 -39z m307 18
c24 -22 27 -32 24 -73 -2 -37 2 -54 20 -76 16 -21 22 -42 22 -79 0 -44 -4 -53
-39 -88 -36 -36 -43 -39 -96 -39 -53 0 -60 3 -96 39 -35 35 -39 44 -39 88 0
37 6 58 23 79 17 22 21 39 19 76 -3 41 0 51 24 73 20 18 38 25 69 25 31 0 49
-7 69 -25z m-759 -739 c29 -12 63 -51 53 -61 -2 -2 -27 15 -57 36 -56 40 -55
49 4 25z m-837 -216 c15 0 20 -5 16 -15 -5 -12 1 -14 30 -11 20 3 36 2 36 -2
0 -4 19 -6 42 -5 24 0 48 -3 54 -8 8 -6 14 -4 17 6 11 27 39 5 35 -27 -3 -16
-1 -31 4 -34 5 -3 6 -10 3 -15 -3 -5 1 -6 9 -3 19 7 21 20 4 27 -10 4 -9 8 2
16 19 14 33 14 25 1 -7 -12 23 -46 32 -36 3 3 13 0 21 -7 13 -10 15 -9 9 6 -3
9 -2 17 4 17 5 0 8 -12 7 -27 -3 -24 0 -28 20 -26 17 2 22 -2 22 -22 0 -14 -4
-25 -10 -25 -5 0 -10 5 -10 12 0 8 -3 9 -10 2 -14 -14 -2 -44 19 -44 14 -1 14
-2 -2 -11 -9 -6 -15 -15 -11 -21 4 -7 10 -5 16 3 7 11 8 9 4 -4 -3 -10 -6 -23
-6 -29 0 -6 -11 1 -25 17 -20 20 -23 30 -15 40 7 8 7 15 1 19 -12 8 -22 -8
-26 -40 -1 -17 2 -24 10 -20 19 7 27 -5 14 -21 -9 -10 -7 -13 10 -13 14 0 20
-4 15 -11 -4 -7 -2 -10 5 -8 7 3 20 18 29 34 9 17 22 34 27 38 6 5 1 14 -12
23 -20 14 -21 18 -7 31 20 20 23 15 29 -40 3 -33 1 -47 -8 -47 -13 0 -40 -71
-30 -80 3 -3 8 1 10 8 9 23 23 12 17 -13 -4 -18 -1 -27 10 -31 9 -3 16 -16 17
-28 0 -11 3 -15 6 -8 8 19 23 14 23 -8 0 -12 7 -20 18 -21 16 -1 16 -2 -1 -6
-22 -6 -12 -23 14 -23 10 0 19 -6 19 -13 0 -18 -32 -35 -59 -30 -14 2 -27 -1
-31 -7 -4 -7 -16 -7 -38 1 -18 6 -50 9 -72 7 -22 -2 -40 1 -40 5 0 5 -7 4 -16
-4 -9 -8 -18 -9 -22 -3 -11 15 -72 1 -72 -17 0 -5 -7 -9 -15 -9 -8 0 -16 -8
-16 -17 -1 -10 -2 -22 -4 -28 -1 -5 -3 -18 -3 -27 -1 -10 -9 -18 -18 -18 -14
0 -14 -1 0 -16 20 -19 21 -35 2 -28 -11 4 -13 0 -9 -15 3 -13 -2 -24 -15 -32
-11 -7 -18 -19 -15 -27 5 -11 7 -11 14 0 7 10 9 9 9 -4 0 -10 -7 -18 -15 -18
-8 0 -15 -5 -15 -11 0 -6 7 -8 16 -5 12 5 15 2 10 -10 -3 -8 -6 -24 -6 -35 0
-10 -7 -19 -15 -19 -8 0 -15 -4 -15 -10 0 -5 4 -10 8 -10 4 0 21 -20 36 -45
16 -25 34 -45 40 -46 6 0 24 -17 41 -36 35 -42 39 -95 12 -136 -20 -31 -57
-36 -78 -11 -11 14 -10 18 6 30 10 8 26 14 36 14 9 0 19 6 22 13 8 21 -18 47
-46 47 -17 0 -28 7 -32 20 -3 11 -11 20 -16 20 -13 0 -11 -14 4 -29 10 -10 8
-12 -8 -9 -11 2 -20 10 -20 17 0 8 -9 17 -20 21 -21 8 -48 -7 -39 -21 7 -13
-52 -11 -97 2 -32 10 -42 9 -64 -5 -34 -22 -28 -38 18 -49 40 -10 48 -24 20
-34 -10 -4 -20 -10 -23 -14 -3 -5 -19 -5 -35 -1 -21 6 -36 20 -50 47 -14 30
-20 35 -23 22 -7 -33 8 -67 33 -79 30 -14 33 -28 5 -28 -11 0 -20 -6 -20 -12
0 -7 -12 -21 -26 -31 -19 -14 -34 -17 -66 -12 -35 6 -40 5 -35 -9 4 -9 2 -16
-4 -16 -5 0 -12 7 -16 16 -5 12 -23 -2 -79 -62 -41 -42 -74 -81 -74 -85 0 -5
-14 -31 -31 -59 -25 -40 -34 -48 -45 -39 -7 6 -18 8 -24 4 -5 -3 -10 1 -10 10
0 11 -5 15 -15 11 -8 -3 -22 2 -31 11 -15 15 -17 15 -28 -3 -6 -10 -14 -30
-18 -44 -5 -17 -6 -11 -4 17 2 24 0 46 -5 49 -5 3 -9 14 -9 24 0 10 -9 22 -20
25 -16 5 -19 12 -14 28 6 20 5 20 -14 -3 -15 -17 -22 -20 -22 -10 0 9 -6 6
-16 -10 -14 -24 -15 -24 -9 17 8 53 -1 88 -20 73 -9 -8 -14 -5 -18 12 -8 31 8
45 30 27 17 -13 17 -13 4 4 -12 15 -13 22 -2 39 7 11 8 17 3 14 -6 -3 -17 -3
-26 0 -18 7 -22 39 -6 49 6 4 8 10 5 15 -11 17 7 37 31 34 25 -2 31 15 18 50
-5 14 -9 14 -34 1 -46 -24 -50 6 -4 31 13 8 26 9 37 2 11 -6 17 -5 17 2 0 6
-7 13 -16 17 -13 5 -13 7 -2 14 8 5 9 9 2 9 -7 0 -14 9 -17 20 -3 11 -13 20
-24 20 -15 0 -16 -2 -3 -10 12 -8 12 -10 1 -10 -11 0 -11 -3 -1 -15 10 -13 9
-15 -10 -15 -21 0 -22 4 -17 39 4 31 2 38 -9 34 -20 -7 -17 7 4 23 14 11 14
13 2 14 -13 1 -13 2 1 13 17 13 31 77 17 77 -5 0 -6 5 -3 10 4 6 12 7 18 3 7
-4 6 1 -2 11 -16 19 -7 32 24 38 13 2 21 12 23 31 4 31 14 34 38 10 17 -17 18
-17 11 1 -9 22 0 56 14 56 5 0 9 -7 9 -15 0 -22 24 -18 46 6 10 12 33 28 49
36 17 8 48 24 70 36 33 17 55 21 120 19 44 -2 98 -8 120 -14 22 -7 45 -12 50
-13 6 0 16 -4 23 -9 7 -4 30 -8 50 -9 20 0 40 -5 44 -11 5 -7 8 -4 8 7 0 10 4
16 8 13 11 -7 29 79 21 101 -6 13 -8 14 -8 2 -1 -8 -6 -26 -13 -40 l-12 -26
-23 28 c-13 15 -22 33 -21 41 2 8 -5 12 -17 11 -29 -3 -108 16 -115 27 -4 6
-18 6 -38 1 -18 -5 -32 -6 -32 -1 0 4 -8 7 -17 6 -12 -1 -20 9 -24 29 -5 22
-7 24 -8 8 -1 -26 -21 -42 -21 -17 0 16 -1 16 -12 1 -7 -9 -24 -19 -38 -22
-23 -5 -25 -3 -26 30 -1 40 -1 40 31 19 29 -19 33 -13 8 11 -13 13 -13 19 -3
25 9 6 8 10 -6 20 -15 9 -16 10 -2 6 14 -4 16 1 13 30 -4 24 -1 34 9 34 16 0
28 -38 18 -54 -10 -15 -10 -56 0 -50 4 3 8 14 8 24 0 10 5 22 10 25 7 4 7 11
2 18 -18 22 -20 67 -4 67 9 0 13 -7 9 -20 -5 -20 15 -50 34 -50 5 0 7 18 4 39
-3 28 0 45 10 55 14 13 13 16 -2 25 -15 8 -16 13 -6 29 6 11 9 29 7 40 -4 15
1 21 20 26 17 4 23 11 20 21 -4 8 -1 15 6 15 6 0 14 -9 17 -19 3 -11 11 -22
18 -25 10 -3 12 0 8 11 -4 10 -2 14 4 10 11 -7 28 22 18 31 -3 3 -5 0 -5 -7 0
-7 -4 -9 -10 -6 -5 3 -10 13 -10 21 0 8 5 12 10 9 6 -3 10 -1 10 4 0 6 9 11
21 11 15 0 19 -4 15 -15 -21 -52 -21 -51 1 -32 11 9 22 15 25 12 3 -3 4 7 2
22 -2 15 -1 20 2 11 6 -19 24 -25 24 -8 0 6 7 10 15 10 8 0 15 5 15 11 0 8 4
8 15 -1 9 -8 25 -9 47 -4 36 9 35 9 61 -1 12 -5 17 -2 17 11 1 18 1 18 14 2 7
-10 23 -18 34 -18z m-423 -110 c3 -5 2 -10 -4 -10 -5 0 -13 5 -16 10 -3 6 -2
10 4 10 5 0 13 -4 16 -10z m-34 -67 c0 -15 2 -15 9 2 6 16 9 17 13 5 7 -17 4
-70 -3 -70 -4 0 -22 32 -37 68 -3 6 0 12 6 12 6 0 11 -8 12 -17z m-21 -19 c0
-8 -5 -12 -10 -9 -6 4 -8 11 -5 16 9 14 15 11 15 -7z m-45 -14 c-3 -5 -10 -10
-16 -10 -5 0 -9 5 -9 10 0 6 7 10 16 10 8 0 12 -4 9 -10z m-88 -65 c-19 -19
-33 -19 -40 -1 -4 9 0 12 12 9 11 -3 21 2 26 14 5 12 9 14 12 6 3 -7 -2 -20
-10 -28z m73 31 c0 -2 -11 -11 -25 -20 -23 -15 -25 -15 -25 -1 0 9 5 13 10 10
6 -3 10 -1 10 4 0 6 7 11 15 11 8 0 15 -2 15 -4z m0 -46 c-6 -12 -9 -28 -6
-35 6 -17 -10 -30 -19 -15 -6 10 24 84 32 76 3 -2 -1 -14 -7 -26z m-113 -15
c8 -9 13 -18 10 -21 -3 -3 -15 4 -26 15 -12 12 -16 21 -10 21 6 0 17 -7 26
-15z m-32 -15 c3 -6 -1 -7 -9 -4 -18 7 -21 14 -7 14 6 0 13 -4 16 -10z m115
-54 c0 -6 -11 1 -24 15 -22 25 -23 25 -34 8 -17 -26 -15 -32 8 -26 24 6 38
-11 16 -19 -9 -3 -16 -14 -16 -24 0 -20 -13 -33 -23 -23 -4 3 -1 15 5 26 9 17
7 23 -11 35 -11 8 -21 22 -20 31 0 10 2 11 6 4 6 -17 23 -17 23 0 0 31 22 36
46 10 13 -14 24 -31 24 -37z m-80 -26 c0 -5 -7 -10 -16 -10 -8 0 -12 5 -9 10
3 6 10 10 16 10 5 0 9 -4 9 -10z m63 -40 c-3 -11 -10 -23 -16 -27 -5 -3 -8 -2
-5 3 3 5 8 17 11 27 9 24 16 22 10 -3z m-40 -37 c-7 -2 -19 -2 -25 0 -7 3 -2
5 12 5 14 0 19 -2 13 -5z m-53 -47 c0 -3 -4 -8 -10 -11 -5 -3 -10 -1 -10 4 0
6 5 11 10 11 6 0 10 -2 10 -4z m-27 -52 c8 -9 -18 -34 -35 -34 -9 1 -7 5 4 14
10 7 15 16 11 19 -3 4 -2 7 4 7 5 0 12 -3 16 -6z m1186 -80 c19 -8 42 -12 52
-9 22 7 63 -30 55 -50 -3 -8 -1 -15 3 -17 5 -2 11 -14 15 -28 4 -14 4 -20 -1
-14 -11 15 -49 34 -65 33 -7 0 -4 -4 7 -9 45 -19 -24 -10 -75 10 -64 25 -78
25 -55 0 10 -11 16 -22 13 -25 -2 -3 -35 -1 -72 4 -42 5 -83 4 -107 -3 -45
-12 -55 -6 -40 23 8 14 8 22 0 27 -8 4 -7 9 2 15 11 7 12 12 1 29 -10 16 -10
20 2 20 8 0 17 -6 19 -12 4 -9 6 -8 6 2 1 22 189 25 240 4z m-189 -140 c0 -9
-7 -14 -17 -12 -25 5 -28 28 -4 28 12 0 21 -6 21 -16z m-90 -48 c0 -8 6 -17
13 -19 6 -3 2 -6 -10 -6 -17 -1 -23 5 -23 19 0 11 5 20 10 20 6 0 10 -6 10
-14z m166 -17 c3 -5 -4 -9 -15 -9 -12 0 -21 5 -21 10 0 6 -9 10 -21 10 -11 0
-18 4 -14 9 6 11 61 -5 71 -20z m-138 -33 c-13 -9 -14 -16 -6 -24 9 -9 15 -9
25 0 10 8 18 7 31 -5 15 -13 21 -14 31 -4 11 10 13 7 9 -15 -3 -17 0 -29 8
-32 8 -3 14 -1 14 4 0 6 10 10 21 10 18 0 19 -2 9 -15 -7 -8 -9 -15 -4 -15 5
0 2 -5 -6 -10 -14 -9 -13 -10 18 -10 4 0 7 4 7 9 0 18 15 23 21 7 3 -9 12 -16
19 -16 7 0 18 -6 24 -14 6 -7 23 -12 37 -10 14 1 24 0 21 -2 -3 -3 13 -23 34
-45 21 -22 39 -45 39 -52 0 -7 7 -3 15 7 16 21 19 18 9 -8 -3 -9 -15 -16 -26
-16 -14 0 -18 -5 -14 -15 3 -9 -1 -18 -9 -21 -8 -4 -15 -11 -15 -16 0 -6 7 -8
15 -4 8 3 15 0 15 -6 0 -6 8 -4 18 5 22 20 39 23 23 4 -6 -8 -8 -17 -4 -21 13
-12 13 -46 0 -46 -6 0 -17 -11 -24 -25 -9 -20 -8 -25 3 -25 8 0 14 8 14 18 1
15 2 15 11 -2 9 -14 8 -20 -2 -26 -10 -7 -9 -17 4 -50 15 -38 15 -45 1 -71 -8
-16 -21 -29 -30 -29 -8 0 -17 -7 -21 -16 -3 -8 -12 -13 -20 -9 -11 4 -14 0
-10 -14 3 -12 -1 -22 -11 -26 -16 -6 -31 10 -33 35 0 8 -7 -1 -14 -20 -16 -42
-16 -41 -18 34 -2 37 -7 61 -15 64 -6 2 -12 8 -12 14 0 6 -30 39 -67 74 -64
59 -69 62 -90 48 -23 -15 -39 -4 -30 21 3 7 -7 23 -24 35 l-29 23 24 24 c44
44 41 124 -9 188 -25 33 -34 62 -16 51 5 -4 7 3 4 14 -3 11 -9 20 -14 20 -5 0
-9 7 -9 16 0 13 3 14 15 4 12 -10 16 -9 21 4 3 9 14 16 23 16 14 -1 14 -2 -1
-14z m637 -96 c3 -5 1 -10 -4 -10 -6 0 -11 5 -11 10 0 6 2 10 4 10 3 0 8 -4
11 -10z m-291 -75 c-4 -8 -10 -15 -15 -15 -4 0 -6 7 -3 15 4 8 10 15 15 15 4
0 6 -7 3 -15z m-1842 -137 c-2 -27 -8 -45 -13 -42 -11 6 -12 64 -2 130 l8 49
5 -45 c3 -25 3 -66 2 -92z m1868 122 c0 -5 -5 -10 -11 -10 -5 0 -7 5 -4 10 3
6 8 10 11 10 2 0 4 -4 4 -10z m-596 -25 c26 -8 51 -13 55 -10 4 2 5 -9 3 -25
-3 -19 -9 -27 -18 -23 -8 3 -14 0 -14 -7 0 -6 -5 -8 -11 -5 -6 4 -8 13 -5 21
3 8 0 14 -7 14 -22 0 -38 -16 -32 -32 4 -9 1 -19 -6 -24 -9 -5 -10 -2 -6 9 3
9 2 19 -3 22 -6 4 -6 14 1 26 9 17 7 21 -10 26 -23 6 -29 23 -8 23 6 0 34 -7
61 -15z m-890 -21 c3 -8 2 -12 -4 -9 -6 3 -10 10 -10 16 0 14 7 11 14 -7z
m-324 -34 c0 -5 -4 -10 -10 -10 -5 0 -10 5 -10 10 0 6 5 10 10 10 6 0 10 -4
10 -10z m1800 -21 c0 -11 -4 -18 -10 -14 -5 3 -7 12 -3 20 7 21 13 19 13 -6z
m30 11 c0 -5 -4 -10 -10 -10 -5 0 -10 5 -10 10 0 6 5 10 10 10 6 0 10 -4 10
-10z m40 -40 c12 -8 11 -10 -7 -10 -13 0 -23 5 -23 10 0 13 11 13 30 0z
m-1520 -4 c0 -3 -4 -8 -10 -11 -5 -3 -10 -1 -10 4 0 6 5 11 10 11 6 0 10 -2
10 -4z m1505 -66 c3 -5 -1 -10 -10 -10 -9 0 -13 5 -10 10 3 6 8 10 10 10 2 0
7 -4 10 -10z m-625 -56 c44 -4 46 -6 15 -15 -19 -5 -42 -5 -62 2 -46 15 -55
33 -12 23 19 -4 45 -9 59 -10z m620 -9 c0 -9 -6 -12 -15 -9 -8 4 -12 10 -9 15
8 14 24 10 24 -6z m10 -60 c0 -5 -5 -3 -10 5 -5 8 -10 20 -10 25 0 6 5 3 10
-5 5 -8 10 -19 10 -25z m-980 -53 c0 -5 24 -6 53 -4 133 11 285 5 331 -12 25
-10 46 -21 46 -25 0 -16 -14 -20 -27 -9 -7 6 -16 8 -20 5 -3 -4 -11 -3 -17 2
-18 14 -56 20 -62 10 -4 -6 -11 -6 -19 1 -13 11 -45 4 -45 -11 0 -11 -70 -1
-87 13 -10 8 -18 6 -33 -7 -19 -17 -20 -17 -20 1 -1 15 -3 14 -15 -7 -8 -15
-21 -29 -30 -33 -8 -3 -15 -16 -15 -30 0 -31 -15 -41 -61 -41 l-36 0 4 45 c2
25 0 40 -4 33 -6 -8 -13 -9 -23 -2 -13 9 -12 12 5 22 10 7 28 22 40 34 21 23
35 29 35 15z m-310 -61 c0 -3 -11 -7 -25 -7 -27 -2 -31 6 -13 24 8 8 15 9 25
1 7 -7 13 -14 13 -18z m1251 6 c-1 -12 -15 -9 -19 4 -3 6 1 10 8 8 6 -3 11 -8
11 -12z m-1210 -40 c-8 -8 -11 -7 -11 4 0 20 13 34 18 19 3 -7 -1 -17 -7 -23z
m149 -17 c0 -11 -4 -20 -9 -20 -5 0 -7 9 -4 20 3 11 7 20 9 20 2 0 4 -9 4 -20z
m208 -16 c-2 -10 -12 -20 -23 -22 -16 -3 -18 -1 -7 9 6 7 12 22 12 33 0 14 3
17 11 9 6 -6 9 -19 7 -29z m60 14 c18 -18 15 -29 -26 -76 l-38 -44 -14 27
c-13 24 -13 28 3 36 9 6 24 23 32 39 17 33 25 36 43 18z m172 -45 c0 -5 -5
-15 -10 -23 -8 -12 -10 -11 -10 8 0 12 5 22 10 22 6 0 10 -3 10 -7z m124 -50
c-9 -50 -10 -50 -28 -15 -15 29 -15 30 7 26 12 -2 16 -2 9 2 -13 6 -7 24 9 24
6 0 7 -15 3 -37z m66 22 c0 -8 -7 -15 -15 -15 -8 0 -15 7 -15 15 0 8 7 15 15
15 8 0 15 -7 15 -15z m60 -18 c0 -5 -4 -5 -10 -2 -5 3 -10 14 -10 23 0 15 2
15 10 2 5 -8 10 -19 10 -23z m-434 -12 c-3 -8 -1 -15 4 -15 6 0 10 7 10 15 0
8 7 15 15 15 21 0 19 -4 -16 -39 -36 -36 -39 -37 -39 -12 0 27 10 51 22 51 6
0 8 -7 4 -15z m107 -49 c6 -16 -2 -28 -14 -20 -12 7 -11 34 0 34 5 0 11 -6 14
-14z m50 -26 c-3 -12 -8 -19 -11 -16 -5 6 5 36 12 36 2 0 2 -9 -1 -20z m57
-44 c0 -3 -4 -8 -10 -11 -5 -3 -10 -1 -10 4 0 6 5 11 10 11 6 0 10 -2 10 -4z
m-751 -406 c0 -10 -3 -8 -9 5 -12 27 -12 43 0 25 5 -8 9 -22 9 -30z m91 10 c0
-5 -5 -10 -11 -10 -5 0 -7 5 -4 10 3 6 8 10 11 10 2 0 4 -4 4 -10z m-21 -19
c7 -5 11 -14 7 -20 -5 -7 -1 -9 8 -5 9 3 16 11 16 18 0 6 16 -6 35 -27 27 -30
40 -37 57 -33 13 3 18 3 11 0 -19 -9 20 -46 40 -38 25 9 34 -24 11 -41 -17
-12 -16 -13 9 -8 21 4 33 0 48 -18 17 -20 22 -21 29 -9 7 10 10 11 10 3 0 -7
7 -13 15 -13 9 0 18 -7 21 -15 4 -8 10 -13 14 -10 5 3 12 0 15 -6 4 -6 18 -8
31 -5 14 4 24 2 24 -4 0 -5 9 -10 21 -10 11 0 17 5 14 10 -3 6 -2 10 4 10 6 0
15 -10 22 -21 6 -12 14 -18 18 -12 11 16 49 12 56 -5 5 -14 7 -14 15 -2 8 12
10 10 10 -7 0 -13 5 -23 10 -23 6 0 10 4 10 9 0 5 11 8 24 7 17 -2 23 1 19 10
-4 10 5 12 34 10 25 -2 39 -9 41 -20 4 -19 18 -21 28 -4 4 6 3 8 -3 5 -6 -4
-10 6 -11 23 0 17 3 30 8 30 4 0 7 -7 6 -16 0 -9 5 -19 13 -22 9 -3 11 1 6 17
-5 16 -3 22 7 20 31 -4 48 2 48 17 0 8 4 13 9 9 5 -3 12 -1 16 5 3 5 13 10 21
10 8 0 27 11 42 25 26 24 70 36 57 15 -4 -6 -12 -7 -18 -4 -8 5 -8 3 1 -7 14
-16 16 -33 2 -24 -5 3 -10 1 -10 -4 0 -6 7 -11 15 -11 29 0 15 -17 -42 -53
-57 -34 -114 -61 -163 -77 -14 -4 -34 -11 -44 -16 -14 -5 -17 -4 -12 4 5 8 -2
12 -21 11 -24 0 -25 -1 -8 -9 19 -7 19 -8 2 -15 -10 -4 -23 -3 -29 3 -8 8 -14
7 -22 -4 -16 -21 -190 -30 -282 -15 -122 21 -273 97 -372 189 -32 30 -42 46
-42 70 0 17 5 34 10 37 6 3 10 1 10 -6 0 -10 3 -10 12 -1 10 10 10 15 -2 22
-19 12 0 46 24 42 9 -2 16 2 16 8 0 12 10 13 29 1z m995 -170 c-10 -10 -21
-16 -24 -14 -3 3 4 11 14 19 28 20 33 17 10 -5z m-619 -41 c3 -5 1 -10 -4 -10
-6 0 -11 5 -11 10 0 6 2 10 4 10 3 0 8 -4 11 -10z"/>
<path d="M5549 7084 c-11 -14 -10 -18 5 -30 13 -9 24 -10 37 -3 22 11 24 20 7
37 -16 16 -33 15 -49 -4z"/>
<path d="M5544 6968 c-51 -24 -50 -99 2 -119 81 -30 140 77 63 116 -32 17 -36
17 -65 3z"/>
<path d="M4344 6040 c-12 -5 -25 -13 -28 -19 -4 -5 7 -3 24 5 16 9 30 17 30
20 0 5 0 5 -26 -6z"/>
<path d="M3690 5930 c0 -5 5 -10 11 -10 5 0 7 5 4 10 -3 6 -8 10 -11 10 -2 0
-4 -4 -4 -10z"/>
<path d="M3595 5861 c-8 -21 -2 -22 25 -1 25 19 25 19 3 17 -12 0 -25 -8 -28
-16z"/>
<path d="M3870 5691 c0 -6 5 -13 10 -16 6 -3 10 1 10 9 0 9 -4 16 -10 16 -5 0
-10 -4 -10 -9z"/>
<path d="M3930 5630 c0 -18 4 -29 10 -25 6 3 10 15 10 25 0 10 -4 22 -10 25
-6 4 -10 -7 -10 -25z"/>
<path d="M3720 5549 c0 -5 9 -9 20 -9 11 0 23 0 27 -1 4 0 9 3 10 8 2 4 -11 8
-27 9 -17 1 -30 -3 -30 -7z"/>
<path d="M3590 5540 c0 -5 5 -10 11 -10 5 0 7 5 4 10 -3 6 -8 10 -11 10 -2 0
-4 -4 -4 -10z"/>
<path d="M3868 5515 c9 -19 17 -33 19 -31 6 5 -19 66 -27 66 -4 0 0 -16 8 -35z"/>
<path d="M3546 5531 c-3 -5 -19 -7 -36 -5 -24 3 -30 0 -30 -15 0 -26 -25 -44
-52 -36 -18 5 -20 4 -8 -4 12 -9 13 -14 3 -31 -15 -24 -17 -40 -3 -40 5 0 7 7
4 15 -7 16 -3 18 20 9 13 -5 14 -8 1 -20 -12 -13 -12 -19 5 -47 23 -38 25 -57
6 -57 -9 0 -12 7 -9 20 5 20 -12 50 -28 50 -5 0 -6 -7 -3 -15 4 -8 2 -15 -4
-15 -6 0 -12 6 -15 13 -2 6 -8 0 -12 -15 -4 -16 -11 -28 -16 -28 -5 0 -6 -6
-3 -14 3 -9 12 -12 22 -9 12 5 14 2 9 -11 -4 -9 -3 -15 2 -11 5 3 12 1 16 -5
4 -6 12 -7 18 -3 22 14 48 13 53 -1 4 -12 12 -12 50 0 31 9 44 10 44 2 0 -6 3
-8 7 -5 3 4 12 2 20 -4 10 -9 13 -8 13 0 0 7 6 11 13 10 27 -3 48 1 43 10 -3
5 2 12 11 15 9 4 20 1 25 -6 6 -10 8 -8 8 5 0 9 7 17 16 17 11 0 14 6 10 23
-3 12 -3 16 0 10 7 -15 34 -17 34 -3 0 6 7 10 15 10 8 0 15 8 15 17 0 9 3 14
6 11 7 -8 50 34 47 45 -4 11 12 8 26 -5 10 -11 11 -10 6 5 -4 9 -2 17 4 17 15
0 3 27 -15 34 -11 4 -14 1 -9 -13 4 -14 0 -21 -16 -26 -23 -8 -42 11 -32 30 4
5 3 7 -1 3 -5 -4 -25 2 -45 13 -30 16 -48 18 -115 13 -68 -5 -78 -4 -73 9 3 8
-2 22 -12 31 -20 18 -28 20 -35 7z m28 -26 c-4 -8 -10 -12 -15 -9 -11 6 -2 24
11 24 5 0 7 -7 4 -15z m126 -103 c0 -4 -18 -8 -40 -8 -22 -1 -37 2 -34 7 6 11
74 12 74 1z m33 -44 c-13 -6 -23 -18 -23 -26 0 -9 -3 -13 -6 -9 -13 13 8 47
29 46 l22 0 -22 -11z m-203 -24 c0 -8 -4 -12 -10 -9 -5 3 -10 10 -10 16 0 5 5
9 10 9 6 0 10 -7 10 -16z m135 -4 c-1 -11 -4 -22 -7 -26 -4 -3 -5 -11 -4 -17
2 -7 1 -9 -1 -5 -2 4 -11 4 -19 1 -8 -3 -14 0 -14 6 0 6 7 11 15 11 9 0 15 9
15 25 0 14 4 25 8 25 5 0 8 -9 7 -20z m-250 -19 c-3 -6 -11 -11 -17 -11 -6 0
-6 6 2 15 14 17 26 13 15 -4z m93 8 c-2 -6 -8 -10 -13 -10 -5 0 -11 4 -13 10
-2 6 4 11 13 11 9 0 15 -5 13 -11z m100 -19 c-14 -22 -24 -19 -15 5 4 8 11 15
17 15 6 0 6 -7 -2 -20z m-171 -26 c-9 -9 -28 6 -21 18 4 6 10 6 17 -1 6 -6 8
-13 4 -17z"/>
<path d="M3445 5499 c-11 -16 -1 -19 13 -3 7 8 8 14 3 14 -5 0 -13 -5 -16 -11z"/>
<path d="M4147 5463 c-4 -3 -7 -11 -7 -17 0 -6 5 -5 12 2 6 6 9 14 7 17 -3 3
-9 2 -12 -2z"/>
<path d="M3190 5278 c0 -4 7 -8 15 -8 8 0 15 -5 15 -12 0 -6 2 -9 5 -6 10 9
-5 35 -20 35 -8 0 -15 -4 -15 -9z"/>
<path d="M3341 5244 c-12 -15 -21 -31 -21 -37 0 -6 11 4 25 23 14 19 25 35 25
37 0 9 -11 0 -29 -23z"/>
<path d="M3250 5239 c0 -5 5 -7 10 -4 6 3 10 8 10 11 0 2 -4 4 -10 4 -5 0 -10
-5 -10 -11z"/>
<path d="M3380 5240 c0 -5 5 -10 10 -10 6 0 10 5 10 10 0 6 -4 10 -10 10 -5 0
-10 -4 -10 -10z"/>
<path d="M3870 5218 c-36 -41 -38 -46 -10 -22 14 12 30 23 37 25 7 2 9 9 5 15
-4 6 -16 0 -32 -18z"/>
<path d="M4185 5159 c-4 -6 -5 -12 -2 -15 2 -3 7 2 10 11 7 17 1 20 -8 4z"/>
<path d="M3205 5060 c4 -6 -1 -20 -10 -30 -11 -13 -13 -20 -5 -25 14 -9 25 1
25 23 0 9 6 16 13 15 19 -4 14 5 -9 18 -16 8 -20 8 -14 -1z"/>
<path d="M3700 4969 c0 -5 5 -7 10 -4 6 3 10 8 10 11 0 2 -4 4 -10 4 -5 0 -10
-5 -10 -11z"/>
<path d="M3750 4960 c0 -5 7 -10 15 -10 8 0 15 5 15 10 0 6 -7 10 -15 10 -8 0
-15 -4 -15 -10z"/>
<path d="M4274 5478 c-3 -4 19 -8 48 -7 57 1 55 5 -5 11 -21 2 -40 0 -43 -4z"/>
<path d="M4598 5463 c7 -3 16 -2 19 1 4 3 -2 6 -13 5 -11 0 -14 -3 -6 -6z"/>
<path d="M4506 5121 c-6 -10 43 -25 52 -16 3 3 -2 5 -11 5 -9 0 -17 5 -17 10
0 12 -17 13 -24 1z"/>
<path d="M4570 5051 c0 -11 4 -22 9 -25 4 -3 6 6 3 19 -5 30 -12 33 -12 6z"/>
<path d="M4626 4939 c-22 -22 -9 -26 19 -6 10 8 14 16 9 19 -5 3 -18 -3 -28
-13z"/>
<path d="M4635 4780 c3 -5 8 -10 11 -10 2 0 4 5 4 10 0 6 -5 10 -11 10 -5 0
-7 -4 -4 -10z"/>
<path d="M3702 4678 c-33 -69 -21 -90 20 -35 21 26 23 34 12 45 -18 16 -19 16
-32 -10z"/>
<path d="M3331 3933 c7 -10 14 -19 14 -20 0 -1 7 8 14 20 13 20 13 21 -2 8
-11 -9 -17 -10 -17 -2 0 6 -5 11 -11 11 -8 0 -7 -6 2 -17z"/>
<path d="M4043 3685 c6 -17 37 -18 37 -1 0 9 -8 14 -20 13 -11 -1 -19 -6 -17
-12z"/>
</g>
</svg>
